Coordinates
version=1
nRows=6
nColumns=36
inDegrees=yes

Units are S.I. units (second, meters, Newtons, ...)
If the header above contains a line with 'inDegrees', this indicates whether rotational values are in degrees (yes) or radians (no).

endheader
time	pelvis_tilt	pelvis_list	pelvis_rotation	pelvis_tx	pelvis_ty	pelvis_tz	hip_flexion_r	hip_adduction_r	hip_rotation_r	knee_angle_r	knee_angle_r_beta	ankle_angle_r	subtalar_angle_r	mtp_angle_r	hip_flexion_l	hip_adduction_l	hip_rotation_l	knee_angle_l	knee_angle_l_beta	ankle_angle_l	subtalar_angle_l	mtp_angle_l	lumbar_extension	lumbar_bending	lumbar_rotation	arm_flex_r	arm_add_r	arm_rot_r	elbow_flex_r	pro_sup_r	arm_flex_l	arm_add_l	arm_rot_l	elbow_flex_l	pro_sup_l
      2.93333330	    -30.25616914	     -2.03856091	      4.83542686	      0.80673731	      0.71312814	      0.24572233	     78.39293180	    -20.67223003	     -6.11480299	     79.93983426	      1.39521331	     35.58643305	      6.20334501	     -7.49999987	     76.87752810	    -12.30993585	     -0.24312524	     76.07160131	      1.32769991	     34.78155125	     -0.89165144	     -7.49999987	    -15.02282367	      3.25628293	     -0.12326798	     67.07681258	     -7.04329486	     29.35959312	    112.83728332	     97.17333724	     80.44643015	      1.33964801	     66.98500342	    119.20332008	    102.99569733
      2.95000000	    -31.05250453	     -2.12394238	      4.95641316	      0.80142360	      0.70605511	      0.24321525	     80.30995856	    -20.97498889	     -5.82592749	     81.25960023	      1.41824757	     35.76403565	      6.11742097	     -7.49999987	     79.01329637	    -12.31544772	     -0.03349777	     77.58878057	      1.35417968	     34.74092929	     -1.21663629	     -7.49999987	    -15.70012294	      3.78323286	      1.28897885	     68.40997564	     -6.92310289	     54.66728132	    120.52229184	     91.41897673	     78.80224862	      1.71161977	     69.15635455	    118.40588082	     90.67941133
      2.96666670	    -31.97557713	     -2.29530141	      5.13162514	      0.79141298	      0.69753298	      0.24727230	     82.43339024	    -21.26119563	     -5.58258631	     82.57077134	      1.44113183	     35.79562772	      6.02083883	     -7.49999987	     81.43804187	    -12.32913809	      0.19540897	     79.05785186	      1.37981981	     34.43257541	     -1.57911296	     -7.49999987	    -16.00946421	      4.17158785	      1.56729049	     71.07134616	     -6.05550231	     67.20062488	    119.22170869	     91.88677567	     79.76093234	      1.97603204	     69.26132927	    117.09205905	     91.34067669
      2.98333330	    -32.95202909	     -2.43829459	      5.30289770	      0.79106139	      0.68568771	      0.24703329	     84.68805272	    -21.57747895	     -5.30493968	     83.95021766	      1.46520771	     35.82510742	      5.88943620	     -7.49999987	     83.90583756	    -12.34023363	      0.39773283	     80.49683583	      1.40493482	     34.04453276	     -1.91772433	     -7.49999987	    -16.05567123	      4.26484376	      1.40639274	     71.45815868	     -5.36245256	     70.93423506	    120.21175472	     92.74818183	     80.68171858	      2.83697049	     70.22312665	    116.54649167	     92.29998924
      3.00000000	    -33.78266868	     -2.61611166	      5.42692935	      0.78090988	      0.66994108	      0.24610668	     87.12306438	    -21.84100193	     -4.87932372	     85.68870483	      1.49555003	     35.98626767	      5.66976885	     -7.49999987	     86.51207207	    -12.41030175	      0.68280822	     82.22044236	      1.43501743	     33.65643371	     -2.45668608	     -7.49999987	    -16.25790429	      4.50510984	      1.64573039	     74.13033913	     -6.00935183	     73.70048716	    120.54975040	     91.53385401	     83.33219917	      4.05419651	     71.09587318	    115.98526948	     92.05200961
      3.01666670	    -34.53469041	     -2.75704632	      5.55483811	      0.79060698	      0.65899027	      0.24172515	     89.34511549	    -22.19803707	     -4.49605808	     87.38725760	      1.52519537	     36.27246937	      5.43780918	     -7.49999987	     88.78705311	    -12.38968124	      0.98575486	     83.86638054	      1.46374447	     33.57520574	     -2.82704097	     -7.49999987	    -16.49119237	      4.63494663	      1.69273389	     75.82008909	     -7.44452939	     77.06080213	    122.87351137	     87.33618833	     84.45464715	      5.87513987	     71.32345456	    115.61858417	     99.58708116
